<svg width="28" height="28" viewBox="0 0 28 28" fill="none" xmlns="http://www.w3.org/2000/svg">
<circle cx="14" cy="14" r="13.5" stroke="#D4D4D8"/>
<path d="M11.4286 12.7143V17M16.5714 17V14.8571C16.5714 14.4025 16.3908 13.9665 16.0693 13.645C15.7478 13.3235 15.3118 13.1429 14.8571 13.1429C14.4025 13.1429 13.9665 13.3235 13.645 13.645C13.3235 13.9665 13.1429 14.4025 13.1429 14.8571V17V12.7143M11 11.4286H11.8571M8.85714 8H19.1429C19.3702 8 19.5882 8.09031 19.7489 8.25105C19.9097 8.4118 20 8.62981 20 8.85714V19.1429C20 19.3702 19.9097 19.5882 19.7489 19.7489C19.5882 19.9097 19.3702 20 19.1429 20H8.85714C8.62981 20 8.4118 19.9097 8.25105 19.7489C8.09031 19.5882 8 19.3702 8 19.1429V8.85714C8 8.62981 8.09031 8.4118 8.25105 8.25105C8.4118 8.09031 8.62981 8 8.85714 8Z" stroke="black" stroke-width="0.857143"/>
</svg>
