<svg width="28" height="28" viewBox="0 0 28 28" fill="none" xmlns="http://www.w3.org/2000/svg">
<circle cx="14" cy="14" r="13.5" stroke="#D4D4D8"/>
<path d="M18.9598 9.01212C18.3147 8.36073 17.5464 7.84425 16.6998 7.49277C15.8531 7.14129 14.9449 6.96184 14.0281 6.96488C10.1869 6.96488 7.05628 10.0955 7.05628 13.9367C7.05628 15.1679 7.3799 16.3639 7.98492 17.4192L7 21.0352L10.6935 20.0644C11.7136 20.6202 12.8603 20.9156 14.0281 20.9156C17.8693 20.9156 21 17.785 21 13.9438C21 12.0795 20.2754 10.3277 18.9598 9.01212ZM14.0281 19.7337C12.9869 19.7337 11.9668 19.4523 11.0734 18.9247L10.8623 18.798L8.66734 19.3749L9.25126 17.2362L9.11055 17.0181C8.53194 16.0945 8.22477 15.0267 8.22412 13.9367C8.22412 10.7428 10.8271 8.13976 14.0211 8.13976C15.5688 8.13976 17.0251 8.74478 18.1156 9.84227C18.6556 10.3797 19.0836 11.0189 19.3746 11.723C19.6657 12.4271 19.814 13.1819 19.8111 13.9438C19.8251 17.1377 17.2221 19.7337 14.0281 19.7337ZM17.208 15.4001C17.0322 15.3156 16.1739 14.8935 16.0191 14.8302C15.8573 14.7739 15.7447 14.7458 15.6251 14.9146C15.5055 15.0905 15.1749 15.4845 15.0764 15.597C14.9779 15.7166 14.8724 15.7307 14.6965 15.6393C14.5206 15.5548 13.9578 15.3649 13.2965 14.7739C12.7759 14.3096 12.4312 13.7398 12.3256 13.5639C12.2271 13.388 12.3116 13.2965 12.403 13.2051C12.4804 13.1277 12.5789 13.0011 12.6633 12.9026C12.7477 12.8041 12.7829 12.7267 12.8392 12.6141C12.8955 12.4945 12.8673 12.396 12.8251 12.3116C12.7829 12.2272 12.4312 11.3689 12.2905 11.0171C12.1497 10.6795 12.002 10.7217 11.8965 10.7146H11.5588C11.4392 10.7146 11.2563 10.7568 11.0945 10.9327C10.9397 11.1086 10.4894 11.5307 10.4894 12.389C10.4894 13.2473 11.1156 14.0774 11.2 14.19C11.2844 14.3096 12.4312 16.0684 14.1759 16.8212C14.591 17.0041 14.9146 17.1096 15.1678 17.187C15.5829 17.3207 15.9628 17.2996 16.2653 17.2573C16.603 17.2081 17.2995 16.8352 17.4402 16.4272C17.5879 16.0192 17.5879 15.6744 17.5387 15.597C17.4894 15.5197 17.3839 15.4845 17.208 15.4001Z" fill="black"/>
</svg>
