<svg width="36" height="36" viewBox="0 0 36 36" fill="none" xmlns="http://www.w3.org/2000/svg">
<rect x="35.5" y="35.5" width="35" height="35" rx="17.5" transform="rotate(180 35.5 35.5)" fill="white"/>
<rect x="35.5" y="35.5" width="35" height="35" rx="17.5" transform="rotate(180 35.5 35.5)" stroke="#327EB2"/>
<path d="M7.46967 17.4697C7.17678 17.7626 7.17678 18.2374 7.46967 18.5303L12.2426 23.3033C12.5355 23.5962 13.0104 23.5962 13.3033 23.3033C13.5962 23.0104 13.5962 22.5355 13.3033 22.2426L9.06066 18L13.3033 13.7574C13.5962 13.4645 13.5962 12.9896 13.3033 12.6967C13.0104 12.4038 12.5355 12.4038 12.2426 12.6967L7.46967 17.4697ZM28 18V17.25H8V18V18.75H28V18Z" fill="#327EB2"/>
</svg>
